<svg width="1920" height="74" viewBox="0 0 1920 74" fill="none" xmlns="http://www.w3.org/2000/svg">
<g clip-path="url(#clip0_47_2)">
<path d="M-0.000781158 37.5195L-0.00696239 49.8695C0.585038 49.8698 1.19607 49.8701 1.95506 49.9065C7.17595 50.1201 11.2475 49.0152 16.0037 50.5306C20.7589 52.0849 23.7018 54.2434 31.1796 56.6572C38.6274 59.0709 35.9274 59.0695 47.0244 59.0751C58.1214 59.0806 51.5396 60.7933 64.6929 58.1979C77.8272 55.5845 82.7989 54.09 95.4852 57.5493C108.181 61.0327 123.806 55.1815 123.806 55.1815C123.806 55.1815 140.988 53.6671 143.03 53.9011C145.078 54.1212 145.753 51.6955 146.91 53.4591C148 55.1936 155.265 56.9423 154.81 57.819C154.369 58.6858 157.766 54.3115 158.439 57.3778C159.124 60.4412 161.369 62.3623 162.508 63.6719C163.637 64.9924 167.016 66.2861 169.736 65.2255C172.459 64.1199 173.608 56.7284 175.855 59.5526C178.131 62.3697 185.144 65.4362 186.504 65.6769C187.875 65.8816 189.229 61.7563 191.042 61.7572C192.837 61.7581 196.242 63.0728 197.835 62.3806C199.419 61.7614 202.816 58.0441 204.852 59.5681C206.885 61.0821 209.609 60.6795 211.847 62.3876C214.152 64.1417 224.777 64.803 224.777 64.803C224.777 64.803 228.628 66.105 230.197 67.8788C231.799 69.6326 236.328 67.8818 241.304 68.0773C246.284 68.3098 251.496 66.3294 255.326 67.8913C259.194 69.3873 258.981 69.3872 265.081 70.0562C271.197 70.7133 269.836 71.3686 274.817 70.7151C279.805 70.0636 278.426 67.0269 283.869 68.7556C289.293 70.5113 294.52 69.848 297.457 68.7624C300.419 67.6749 298.593 69.667 309.471 65.4994C320.336 61.3789 321.912 59.8397 329.63 62.7055C337.318 65.5134 345.261 62.0474 347.976 62.4557C350.697 62.9101 352.262 58.7849 354.093 60.2988C355.887 61.8397 357.914 59.4437 360.424 60.0889C362.923 60.7562 368.57 59.006 369.253 61.1624C369.917 63.3517 370.816 62.4661 371.963 62.9197C373.109 63.3543 374.472 60.762 375.816 60.3096C377.186 59.8673 378.546 61.621 378.755 63.3571C378.97 65.1002 381.006 61.8522 382.366 61.6229C383.735 61.4106 385.098 59.0143 386.227 60.3149C387.365 61.6254 389.835 62.7357 390.982 63.1702C392.112 63.5748 395.279 60.3194 396.211 60.7739C397.1 61.1773 395.741 59.2506 403.2 61.6334C410.686 64.0361 415.434 64.6955 417.932 65.1197C420.404 65.555 425.161 64.2473 427.216 64.4884C429.234 64.7024 429.493 62.9485 434.252 60.9859C438.992 59.0413 449.626 56.6746 450.3 56.4349C450.979 56.2223 462.742 54.6882 465.243 54.9094C467.748 55.1337 477.477 49.4525 477.477 49.4525L485.207 46.4304C485.207 46.4304 498.545 45.9941 500.823 46.4382C503.079 46.8623 499.212 46.4374 515.757 54.3067C532.282 62.141 538.855 58.8782 539.541 58.6386C540.216 58.4349 560.608 49.9561 563.533 50.8046C566.457 51.7121 570.995 46.2793 577.346 45.3855C583.705 44.5317 603.843 45.3988 603.843 45.3988C603.843 45.3988 624.675 47.6052 627.163 49.3224C629.644 51.0967 631.217 51.5215 631.67 52.1507C632.143 52.8319 632.815 55.8603 635.75 56.9587C638.712 58.0602 643.476 58.9286 644.152 59.3729C644.826 59.7873 645.721 63.0557 649.803 62.8648C653.877 62.6078 657.735 62.2027 659.772 61.9908C661.809 61.7618 663.16 62.4095 664.066 64.6059C664.953 66.7654 667.898 63.9238 669.711 65.4757C671.533 66.9897 677.651 63.9297 678.8 64.6133C679.9 65.2498 678.993 68.2954 678.993 68.2954L683.073 68.9534L686.943 68.9554L689.199 72.2235L691.902 69.1598L695.763 72.6778L700.965 71.7864C700.965 71.7864 703.927 71.1589 705.499 71.5847C707.073 72.0284 709.359 72.8796 711.626 72.4647C713.875 72.0318 714.774 70.4903 718.847 68.5463C722.912 66.5644 731.548 62.6467 735.169 61.1355C738.788 59.6333 744.668 54.2023 749.674 56.8238C754.632 59.4292 759.175 59.6435 761.204 58.5455C763.25 57.4466 770.478 54.2142 771.414 55.0616C772.303 55.9311 771.616 57.2507 772.506 57.4522C773.44 57.6847 778.41 53.7751 779.088 53.5355C779.764 53.3328 783.169 54.8475 782.956 55.2904C782.714 55.7333 784.53 54.4412 787.251 53.9906C789.981 53.5409 796.071 55.075 800.373 55.2991C804.685 55.5223 808.749 55.7463 813.516 56.4027C818.282 57.0511 824.141 55.532 825.501 56.1607C826.861 56.8624 836.377 58.1592 836.847 59.2394C837.292 60.3266 839.123 61.3975 842.722 62.0823C846.342 62.7041 849.054 60.7855 850.646 59.6893C852.231 58.5911 857.229 54.8836 865.152 53.8186C873.078 52.7135 870.366 47.2862 880.769 51.6474C891.177 55.9906 891.173 64.7196 895.269 55.9926C899.334 47.2997 901.37 49.9037 911.098 47.0656C917.92 45.113 932.194 41.4301 943.218 39.2396C945.318 38.8337 947.336 38.4657 949.076 38.1996C949.308 38.1697 949.493 38.1528 949.696 38.1239C951.325 37.8577 952.759 37.6544 953.981 37.583C954.279 37.5562 954.574 37.5283 954.824 37.5284C963.886 37.07 980.862 31.6525 983.13 29.0336C985.401 26.4307 992.205 19.2471 997.637 22.7289C1003.08 26.2006 1003.96 30.114 1006.67 24.6974C1009.39 19.2557 1008.73 15.5524 1014.85 16.2025C1020.95 16.8615 1027.3 15.3517 1030.46 15.7663C1033.63 16.2119 1039.3 15.1457 1042.47 16.6603C1045.62 18.1749 1045.19 15.5717 1051.31 17.7637C1057.41 19.9338 1061.93 19.936 1067.36 22.0978C1072.8 24.3175 1082.31 25.3812 1086.63 25.1914C1090.91 24.9325 1095.45 28.2408 1095.45 28.2408C1095.45 28.2408 1104.51 26.6954 1107.67 27.1479C1110.83 27.5655 1116.95 26.0546 1121.48 28.6678C1126.01 31.2821 1129.4 28.2578 1135.07 28.0207C1140.72 27.8115 1140.95 26.7136 1145.48 30.8699C1150.01 35.0231 1153.19 32.8107 1157.26 33.7178C1161.33 34.5568 1160.89 30.6446 1168.57 32.1904C1176.29 33.7273 1178.33 33.2863 1184.44 33.9264C1190.56 34.5724 1194.39 35.4513 1202.78 36.3345C1211.15 37.1947 1216.37 36.5703 1223.84 37.2011C1231.3 37.8688 1234.72 35.7035 1238.53 40.4744C1242.39 45.2944 1248.05 42.6752 1255.98 40.4832C1263.93 38.3272 1267.31 39.1988 1268.21 39.1993C1269.11 39.1997 1275.01 37.8907 1277.26 38.5478C1279.55 39.205 1287.7 39.412 1289.48 39.6539C1291.31 39.8579 1299.46 36.6119 1300.36 36.8064C1301.27 37.0358 1308.51 36.8105 1313.05 38.5657C1317.58 40.321 1323.44 41.8379 1326.17 42.9383C1328.89 44.0297 1330.7 46.6596 1333.19 46.1908C1335.68 45.7661 1336.6 43.8005 1340.89 46.8587C1345.19 49.8868 1341.1 51.1948 1350.85 51.4597C1360.6 51.6485 1368.06 49.0493 1370.99 48.1937C1373.96 47.2992 1372.59 45.3615 1377.57 47.984C1382.54 50.5985 1386.87 47.7487 1386.87 47.7487C1386.87 47.7487 1401.14 45.5868 1403.61 46.4481C1406.1 47.3153 1417.65 47.3211 1424.46 49.3185C1431.24 51.2409 1437.14 49.9338 1445.96 53.4453C1454.8 56.9387 1459.56 52.8071 1467.46 54.969C1475.4 57.189 1479.69 54.5721 1485.8 57.6102C1491.9 60.6563 1493.73 58.4902 1498.48 59.1205C1503.22 59.8059 1506.43 56.5035 1514.33 56.9685C1522.26 57.4054 1523.4 55.884 1523.4 55.884C1523.4 55.884 1529.96 56.3133 1533.34 55.889C1536.75 55.4477 1539.92 59.1423 1543.54 58.0731C1547.19 56.9859 1551 55.8978 1552.83 53.9257C1554.66 51.9877 1554.86 55.4568 1566.21 53.3034C1577.51 51.1131 1566.41 53.3035 1587.02 49.4019C1607.64 45.4812 1615.12 43.4929 1626.2 45.4905C1637.29 47.433 1668.77 44.2028 1683.49 47.4561C1698.21 50.7585 1703.64 49.6552 1714.98 51.3849C1726.28 53.1436 1730.36 50.5456 1739.86 53.5944C1749.38 56.6271 1751.41 52.9551 1756.63 54.2687C1761.84 55.5624 1768.85 53.1659 1771.57 55.1232C1774.29 57.1006 1776.78 57.1018 1778.84 58.1919C1780.87 59.2639 1784.95 57.7619 1786.98 58.3989C1789.03 59.064 1793.99 56.2434 1796.5 56.6507C1798.97 57.1119 1805.76 58.8493 1808.05 59.7295C1810.3 60.5876 1813.22 59.2801 1815.27 56.4571C1817.31 53.6331 1829.09 58.42 1829.09 58.42C1829.09 58.42 1832.71 63.2018 1835.64 63.8963C1838.61 64.5148 1842.91 61.2869 1844.93 61.2879C1846.97 61.289 1850.17 60.3946 1854.66 61.5058C1859.2 62.5951 1860.56 59.9858 1865.78 61.5114C1870.98 63.017 1877.33 58.0082 1881.63 58.8873C1885.92 59.7685 1874.15 56.6896 1897.47 55.0012C1906.65 54.3038 1913.94 53.6605 1920.03 53.3035L1920.05 18.9825C1914.99 18.564 1910.89 18.055 1909.27 17.5481C1903.84 15.7914 1896.59 12.3088 1890.27 13.1736C1885.35 13.8332 1880.38 11.8747 1878.44 10.9607C1877.88 10.7104 1877.58 10.5463 1877.58 10.5463L1874.33 11.5956L1872.13 12.2966C1872.13 12.2966 1868.51 13.1627 1865.8 12.2934C1865.33 12.1371 1864.9 11.9499 1864.54 11.7678C1862.74 10.9259 1861.73 10.1323 1859.47 12.2902C1858.87 12.8599 1858.5 13.4697 1858.19 14.0436C1857.17 16.0531 1857.17 17.5491 1852.51 15.0547C1852.44 14.9997 1852.33 14.9546 1852.21 14.8896C1848.85 13.0419 1847.78 14.1494 1847.14 15.699C1846.52 17.0917 1846.23 18.8376 1844.95 19.2229C1842.25 20.1236 1844.05 15.7625 1838.64 16.6168C1833.19 17.5101 1835.02 17.511 1829.58 17.5083C1824.15 17.5055 1796.98 20.9509 1796.98 20.9509L1785.4 16.6091L1780.67 14.8528L1779.48 18.8572L1778.85 20.9419C1773.41 19.1861 1769.79 20.0863 1769.79 20.0863L1763.44 20.0832C1759.93 19.4914 1756.81 18.2178 1755.04 17.3499C1754.06 16.9225 1753.51 16.5732 1753.51 16.5732C1753.51 16.5732 1748.95 18.3239 1747.15 20.075C1746.67 20.5118 1746.13 21.0815 1745.56 21.6642C1743.9 23.2034 1741.91 24.6154 1739.91 22.6754C1739.62 22.4172 1739.42 22.1321 1739.26 21.8641C1739.19 21.752 1739.15 21.661 1739.11 21.585C1738.96 21.2919 1738.89 21.0149 1738.84 20.7378C1738.58 19.0747 1739.87 18.1454 1737.19 20.07C1733.56 22.6722 1738.1 14.8315 1733.56 22.6722C1732.08 25.2205 1731.09 26.918 1730.46 28.0796C1729.03 30.5149 1729.03 30.5149 1729.03 30.5149L1715.45 26.1531L1709.09 21.7749C1709.09 21.7749 1708.79 21.7018 1708.34 21.5706C1707.11 21.277 1704.64 20.8587 1703.39 21.8281C1703.11 22.012 1702.89 22.2888 1702.77 22.6578C1702.49 23.4876 1701.83 23.7833 1701.07 23.8199C1699.44 23.8921 1697.33 22.6551 1697.33 22.6551C1697.33 22.6551 1696.06 24.6474 1694.15 26.0795C1692.49 27.3586 1690.37 28.2266 1688.27 26.9895C1686.69 26.0757 1685.09 25.2709 1683.61 24.7912C1681.11 23.9969 1678.93 24.1429 1677.71 26.3752C1677.6 26.5592 1677.5 26.7801 1677.41 26.9841C1676.32 29.6235 1674.23 28.4595 1672.14 27.4795C1670.78 26.8518 1669.43 26.3141 1668.33 26.9795C1667.27 27.663 1666.62 28.4917 1666.02 29.1814C1665.04 30.2549 1664.21 30.9995 1661.99 30.4824C1658.39 29.5946 1654.74 31.3357 1652.03 31.3344C1651.7 31.3342 1651.34 31.363 1650.97 31.4279C1650.92 31.4278 1650.89 31.4278 1650.83 31.4368C1650.2 31.5465 1649.56 31.6762 1648.89 31.7488C1646.4 32.2836 1643.34 33.086 1640.25 33.0845C1635.72 33.0822 1624.85 31.3208 1611.27 26.951C1603.85 24.6013 1601.3 22.711 1599.35 22.091C1597.68 21.5722 1596.47 21.9046 1593.19 23.4739C1592.63 23.7297 1592.07 23.9694 1591.5 24.1161C1584.48 26.5866 1575.76 24.3312 1573.21 24.3299C1570.51 24.3286 1566.89 24.3268 1566.89 24.3268L1562.36 25.2115C1562.36 25.2115 1553.31 25.429 1552.63 25.6206C1552.22 25.7404 1550.25 25.9064 1548.75 25.9787C1547.77 26.0442 1546.97 26.0708 1546.97 26.0708C1546.97 26.0708 1546.16 25.1304 1545.65 24.8611L1545.65 24.8241C1545.37 24.703 1545.17 24.7599 1545.17 25.2029C1545.17 26.4939 1542.67 23.8897 1543.12 26.0689C1543.58 28.2281 1541.98 29.3173 1540.62 26.9176C1540.45 26.6415 1540.32 26.4015 1540.22 26.1604C1539.27 24.425 1539.16 24.0749 1538.38 25.4215C1537.96 26.0833 1537.65 26.3801 1537.2 26.5639C1536.64 26.7876 1535.8 26.8962 1534.28 27.3665C1531.58 28.2231 1528.64 26.9126 1528.64 26.9126L1525.92 25.1943C1525.92 25.1943 1523.64 23.2171 1522.53 23.6606C1521.37 24.083 1521.17 25.4139 1518.89 24.9598C1517.64 24.7111 1516.3 24.0645 1515.22 23.6209C1514.35 23.2605 1513.64 23.0101 1513.25 23.2129C1512.42 23.6195 1511.58 21.2931 1510.24 23.5444C1510.11 23.7474 1509.98 24.0053 1509.82 24.3002C1508.27 27.8074 1505.3 24.075 1503.72 24.5382C1502.14 24.9514 1496.46 25.8255 1496.46 25.8255C1496.46 25.8255 1494.15 26.1384 1491.89 26.4692C1489.95 26.7383 1488.06 27.0213 1487.63 27.1331C1487.4 27.187 1486.97 27.3438 1486.38 27.5195C1484.94 28.0548 1482.71 28.7896 1481.08 28.6438C1478.8 28.4387 1479.06 28.6428 1472.7 26.4596C1466.36 24.2785 1459.35 24.719 1458.22 24.9304C1457.08 25.1608 1433.52 24.504 1423.56 26.012C1417.77 26.8961 1415.74 27.2441 1414.83 27.4097C1414.13 27.5203 1414.09 27.5203 1413.6 27.5201C1412.49 27.5195 1410.88 26.0047 1409.29 28.4039C1409.06 28.7538 1408.83 29.1047 1408.6 29.4466C1407.23 31.3549 1405.86 32.8322 1404.54 32.0755C1402.97 31.2147 1403.65 29.7021 1401.15 30.5698C1398.64 31.4246 1393 27.0867 1391.62 26.8451C1390.68 26.6886 1390.63 25.2846 1388.51 25.1265C1387.58 25.014 1386.31 25.1624 1384.38 25.7704C1382.67 26.3046 1381.25 26.7839 1380.06 27.2063C1376.85 28.2487 1375.14 28.7358 1372.83 27.9326C1369.68 26.8331 1366.04 25.9823 1363.3 25.3349C1361.72 24.9271 1359.66 23.8001 1357.53 23.318C1356.05 22.9872 1354.54 22.9865 1353.12 23.7958C1351.84 24.5541 1350.85 24.9506 1349.96 25.2162C1348.53 25.6025 1347.32 25.6389 1345.22 26.1738C1341.83 27.0591 1339.79 23.1251 1331.87 22.2341C1323.93 21.3802 1313.31 22.6879 1304.23 18.5483C1301.71 17.4031 1299.69 16.369 1298.02 15.5352C1293.71 13.45 1292.14 12.8403 1292.45 15.6994C1292.65 17.3985 1292.02 18.0612 1291.13 18.3578C1289.98 18.7812 1288.44 18.5594 1287.92 19.2041C1287.01 20.2557 1281.59 18.537 1281.59 18.537C1281.59 18.537 1278.88 18.5356 1278.19 16.9953C1277.52 15.4809 1278.41 18.0924 1276.16 17.8803C1274.72 17.7495 1273.4 15.9489 1272.61 15.1565C1272.15 14.6673 1271.87 14.5281 1271.87 15.2661C1271.87 17.2321 1267.79 15.6871 1268.48 15.4764C1268.82 15.3566 1268.36 15.4114 1267.79 15.7341C1267.79 15.7601 1267.79 15.7601 1267.79 15.7601C1267.29 15.9918 1266.61 16.4885 1266.43 17.2294C1266.02 18.5482 1263.17 18.7108 1262.66 18.2875C1262.63 18.2325 1262.59 18.1975 1262.57 18.1315C1262.57 18.1045 1262.57 18.1045 1262.57 18.0845C1262.8 17.4386 1260.99 14.8087 1260.99 14.8087C1260.99 14.8087 1259.18 16.5598 1258.5 17.2264C1257.82 17.8721 1254.64 13.7175 1253.74 14.158C1253.36 14.3349 1251.43 14.6579 1249.29 14.9688C1249.26 14.9688 1249.22 14.9688 1249.22 14.9948C1248.61 15.1065 1247.95 15.1901 1247.34 15.3008C1245.2 15.6768 1243.26 16.0348 1243.09 16.3217C1242.66 16.9775 1240.36 15.8963 1238.11 15.2502C1235.86 14.5841 1235.86 14.1481 1230.18 14.5813C1224.52 15.0194 1222.27 14.3543 1213.88 13.2711C1205.51 12.1869 1220.47 8.69839 1189.67 10.002C1158.86 11.2766 1162.94 9.9886 1156.16 8.0292C1152.33 6.91129 1149.1 5.12767 1146.56 4.1494C1144.52 3.37138 1142.97 3.1296 1141.86 4.08905C1141.84 4.14704 1141.8 4.14701 1141.77 4.199C1139.68 5.85995 1135.94 4.69609 1132.96 4.24159L1132.9 4.24156C1132.32 4.14127 1131.75 4.08399 1131.24 4.08374C1130.12 4.08318 1128.69 3.70645 1127.28 3.21575C1124.87 2.38354 1122.64 1.22742 1122.64 1.22742C1122.64 1.22742 1122.3 1.03426 1121.75 0.692982C1121.44 0.510826 1121.07 0.298639 1120.68 0.0844452L1116.73 0.0824682C1116.54 0.287372 1116.31 0.482257 1116.04 0.654122C1115.21 1.2237 1114.02 1.56611 1113.13 1.45567C1111.69 1.26295 1109.69 1.43394 1109.37 0.623781C1109.3 0.540749 1109.27 0.47574 1109.27 0.36474C1109.27 0.27974 1109.24 0.181717 1109.18 0.0786884L1052.85 0.050498C1052.54 0.146338 1052.22 0.259181 1051.93 0.409037C1051.48 0.684814 1051.06 0.9986 1050.86 1.4245C1050.76 1.60845 1050.61 1.77537 1050.44 1.94229C1049.49 2.77081 1047.49 3.32381 1045.91 3.78602C1044.96 4.00554 1044.15 4.26514 1043.84 4.46598C1043.42 4.77178 1042.51 4.35532 1041.59 3.82086C1040.52 3.21033 1039.44 2.39678 1039.09 2.28661C1038.71 2.17642 1036.85 3.02148 1035.18 3.85365C1034.39 4.26025 1033.63 4.64687 1033.08 4.9216C1032.73 5.13542 1032.45 5.26329 1032.29 5.33521C1031.93 5.51203 1031.36 5.30074 1030.69 4.95741C1030.02 4.64407 1029.21 4.19066 1028.46 3.90429C1028.07 3.73709 1027.68 3.6469 1027.32 3.59072C1026.07 3.47009 1024.74 2.50142 1023.16 1.83463C1022.42 1.52126 1021.62 1.26187 1020.75 1.17743C1019.83 1.11397 1019.63 1.44687 1019.41 1.81376C1018.98 2.49954 1018.46 3.29228 1012.79 1.81044C1012.6 1.75635 1012.36 1.67323 1012.13 1.61711C1010.2 1.10915 1008.59 0.637349 1007.27 0.258685C1006.99 0.178546 1006.73 0.103411 1006.47 0.029282L992.763 0.0224211C992.587 0.079333 992.412 0.135248 992.221 0.198152C992.221 0.198152 992.221 0.198152 992.184 0.198134C991.916 0.308 991.619 0.418849 991.315 0.520697C990.148 0.897113 989.239 1.32366 988.352 1.72621C985.398 2.96274 982.482 4.01228 970.459 4.00626C963.546 4.0028 958.89 2.59847 954.226 1.56113C949.683 0.608858 945.131 -0.0124152 938.439 1.51624C936.531 1.93928 934.496 2.54726 932.217 3.33212C930.967 3.7825 929.738 4.20888 928.553 4.59529C927.302 4.98166 926.099 5.35005 924.933 5.64547C910.91 9.69845 902.477 9.19424 893.703 7.90084C883.516 6.34474 875.154 11.1376 869.462 13.7467C863.808 16.3639 859.723 17.2388 859.723 17.2388C859.723 17.2388 853.627 16.3588 852.488 16.7852C851.358 17.2346 849.767 16.7839 846.833 17.0224C843.907 17.2309 837.983 17.228 828.689 22.2253C819.431 27.2237 803.81 26.1259 803.152 26.1255C802.46 26.1252 791.11 27.8545 791.11 27.8545C791.11 27.8545 783.652 24.5928 781.83 24.3799C780.032 24.177 779.108 25.6895 779.355 27.4426C779.568 29.1587 778.689 30.4583 777.994 30.0439C777.309 29.6016 776.655 25.6883 774.59 26.3322C772.565 26.9862 767.355 24.5846 766.206 26.328C765.103 28.0815 761.227 25.8835 760.088 25.679C758.978 25.4564 750.585 23.6972 747.195 26.5225C743.797 29.3718 738.143 26.314 735.422 28.0666C732.692 29.7933 731.794 12.3848 727.049 23.6864C722.296 34.9991 720.688 30.4293 716.394 29.7851C712.099 29.126 707.342 29.1236 705.981 29.3529C704.638 29.5652 699.871 33.0518 696.022 33.4929C692.162 33.924 685.606 34.1317 681.537 34.5637C677.464 34.9776 650.066 34.3069 642.136 33.4659C634.197 32.586 629.235 31.4835 629.235 31.4835C629.235 31.4835 631.481 22.7726 628.777 24.9682C626.054 27.1259 617.426 30.8206 617.222 31.9195C617.242 31.3665 616.975 29.8343 614.501 29.5201C610.886 29.0753 605.239 29.3025 599.333 29.0695C593.438 28.8456 589.605 29.7216 587.781 30.1637C585.967 30.5968 573.056 33.8644 564.225 34.0709C555.407 34.2595 524.152 31.8739 522.578 31.8731C521.161 31.8724 519.969 30.7258 519.664 30.4126C519.832 30.6737 520.348 31.872 517.57 33.1906C514.431 34.711 511.462 32.9585 511.462 32.9585C511.462 32.9585 510.557 30.7691 509.213 32.5234C507.844 34.2357 502.41 32.954 501.514 33.5896C500.578 34.2321 495.619 32.2826 495.619 32.2826C495.619 32.2826 493.583 33.5856 489.963 32.7228C486.317 31.8539 489.725 29.8997 482.023 30.9658C474.342 32.068 472.292 39.0259 462.325 39.6869C452.357 40.327 437.43 33.7665 436.299 36.1839C435.18 38.5174 430.866 39.6152 427.747 40.0666C428.653 39.8351 429.014 39.4943 420.427 39.877C406.172 40.5068 398.696 38.1131 396.231 40.0579C393.715 42.0426 390.781 44.2271 388.753 43.5631C386.718 42.9151 381.952 40.4937 381.276 39.8564C380.59 39.203 377.87 39.8547 376.056 39.6428C374.234 39.4019 373.129 41.1553 371.984 40.9587C370.836 40.7112 364.506 37.439 364.506 37.439C364.506 37.439 355.679 35.2676 353.43 35.2664C351.144 35.2653 340.95 37.6292 338.24 37.4258C335.53 37.2235 329.875 36.5536 328.051 36.7567C326.256 37.0058 319.454 36.1244 316.964 35.4612C314.468 34.7939 313.348 33.0864 310.856 35.2451C308.357 37.4109 306.321 36.9959 304.96 38.5172C303.598 40.0105 301.321 39.8154 299.758 39.3646C298.149 38.9208 296.37 38.7169 294.769 40.2291C293.185 41.7783 290.01 43.0697 287.955 41.5357C285.93 40.0017 286.388 27.1579 283.224 32.6183C280.055 38.0527 271.92 36.1006 269.864 37.5936C267.829 39.1456 267.377 34.5854 265.33 36.5213C263.304 38.4973 255.613 36.2875 254.467 35.8639C253.327 35.4293 249.932 33.6726 246.527 32.5999C243.129 31.4932 214.398 22.1388 190.156 26.2427C165.941 30.3836 163.667 27.3275 161.861 27.3266C160.037 27.3256 151.674 26.0195 148.73 25.576C145.776 25.1495 133.335 29.4923 129.256 27.7622C125.174 26.0062 119.974 25.5616 119.974 25.5616C119.974 25.5616 109.312 24.9003 105.702 25.7574C102.083 26.6506 89.8567 22.5005 89.8567 22.5005C89.8567 22.5005 85.7956 22.9415 83.7398 22.4975C81.705 22.0724 76.6999 18.1479 73.9968 16.1806C71.2768 14.2132 67.669 12.0514 67.4477 12.6713C67.2164 13.3432 58.6029 20.0849 54.2911 21.5957C50.0054 23.1166 48.1697 28.5717 41.6171 27.9224C35.0454 27.2631 35.0504 17.2601 32.116 22.0476C29.1526 26.8261 27.8024 23.1065 24.6532 25.5139C21.451 27.9123 19.6543 29.4354 13.7797 26.6064C7.86512 23.7905 6.97885 18.307 3.35022 21.5712C1.68947 23.0704 0.848024 23.871 0.0538227 24.2726L0.0471925 37.5196L-0.000781158 37.5195Z" fill="#F9F9F9"/>
<path d="M12.0679 38.2645C14.6757 38.6728 16.8605 39.0979 18.6923 39.4878C25.6806 40.9773 27.782 42.0654 30.7438 40.5369C33.0964 39.3181 37.8716 40.7974 41.8477 42.7384C44.1801 43.8656 46.2345 45.1396 47.391 46.1172C50.4717 48.7218 56.5443 47.4148 61.6532 45.7743C63.8295 45.0554 68.5866 45.0578 74.1295 45.2066C76.3145 45.2277 78.6184 45.3218 80.9244 45.396C80.9504 45.396 80.9504 45.396 80.9504 45.396C86.5413 45.5658 92.2693 45.7327 96.6554 45.4949C98.7965 45.3389 100.727 45.2769 102.526 45.1948C109.097 44.8941 113.697 44.7294 119.536 43.3473C120.14 43.2206 120.787 43.0709 121.445 42.8783C129.914 40.5865 136.705 40.2739 139.427 38.6353C142.151 37.0106 139.427 38.6353 142.509 39.2828C143.343 39.4672 144.582 39.9279 146.036 40.5756C146.582 40.8049 147.117 41.0651 147.681 41.3524C148.062 41.5196 148.423 41.7028 148.8 41.879L148.829 41.879C149.034 41.9801 149.218 42.0632 149.404 42.1633C152.224 43.5317 154.724 44.8619 154.724 44.8619C154.724 44.8619 160.165 44.8647 162.516 45.1788C164.015 45.3726 164.859 44.183 166.273 43.5747C167.005 43.2821 167.867 43.1155 169.108 43.4301C169.291 43.4502 169.485 43.5133 169.671 43.5604C173.752 44.8725 171.02 48.7841 171.02 48.7841C171.02 48.7841 178.171 53.6867 184.253 52.7237C190.407 51.7198 191.769 53.0405 192.083 51.7206C192.407 50.4188 199.909 55.3405 205.658 56.0004C211.424 56.6493 213.492 49.1183 214.853 48.807C216.212 48.4747 233.869 53.7155 240.308 55.6678C246.742 57.627 284.137 65.8377 291.265 64.1823C298.381 62.5798 314.684 58.981 319.118 56.3712C323.552 53.7614 334.741 54.403 335.771 52.1335C336.77 49.847 341.86 53.4466 343.212 53.1163C344.572 52.8039 350.002 55.4157 351.707 54.1075C353.437 52.8084 358.518 55.4199 360.88 52.4591C361.897 51.2066 363.221 51.2073 364.564 51.541C364.665 51.558 364.777 51.5581 364.851 51.6141C366.552 52.022 368.274 52.8698 369.373 52.1504C371.423 50.8514 375.168 56.3993 378.549 52.468C381.984 48.5577 382.609 53.467 383.654 54.1235C384.673 54.77 391.466 56.0934 394.186 54.4318C395.519 53.6224 398.25 53.1528 400.953 52.8852C403.704 52.5725 406.405 52.4809 407.424 52.4814C408.46 52.4819 408.35 52.9819 408.931 54.1352C409.366 55.0214 410.253 56.3048 412.408 58.0029C412.935 58.4562 413.538 58.8895 414.205 59.3608C421.347 64.2464 430.864 60.6711 431.87 59.3696C432.891 58.0692 442.398 56.4319 447.83 54.4586C452.718 52.6911 464.52 49.355 482.183 44.1778C484.144 43.6088 486.181 43.0368 488.274 42.4179C490.688 41.7091 492.82 41.1201 494.679 40.6411C509.147 36.8833 508.841 39.5782 515.438 42.7475C515.853 42.9407 516.251 43.1449 516.613 43.2911C523.044 46.2673 524.303 45.6479 530.709 44.7181C534.818 44.1302 538.667 46.5141 542.434 48.397C544.886 49.6812 547.309 50.7254 549.726 50.5966C555.249 50.3064 556.065 48.9568 562.323 45.6399C563.029 45.2513 563.807 44.8547 564.667 44.4221C565.526 43.9885 566.315 43.6299 567.011 43.3333C570.685 41.8141 572.72 41.8151 574.876 41.9912C576.504 42.138 578.161 42.3789 580.661 42.1331C587.13 41.4704 610.229 41.4819 617.016 41.1813C623.32 40.8515 632.231 44.2059 639.984 49.1208C640.612 49.5181 641.197 49.9054 641.789 50.3287C649.949 55.8718 647.563 53.5976 651.301 54.5595C655.049 55.5673 660.471 58.1831 663.2 60.1304C665.92 62.0978 672.002 58.1878 674.4 57.839C676.787 57.5272 679.832 57.8417 684.944 54.9193C690.027 51.9679 689.024 59.1664 695.111 61.4564C701.228 63.7295 707.677 65.4047 712.77 62.4352C717.872 59.5118 724.989 58.8614 733.144 54.2974C740.792 50.0093 743.965 50.0108 749.936 49.2398C750.306 49.176 750.734 49.1292 751.159 49.0734C754.953 48.5313 758.526 47.1571 762.258 45.637C762.258 45.637 762.258 45.637 762.284 45.637C765.209 44.3845 768.256 43.047 771.552 41.9147C779.023 39.2964 782.416 41.2641 788.534 42.2362C791.82 42.7448 795.012 44.1394 797.964 45.3669C800.462 46.3941 802.784 47.2993 804.82 47.4563C807.764 47.6978 811.124 48.0595 814.472 47.5721C816.158 47.372 817.852 46.9278 819.434 46.1546C823.87 44.0438 827.432 46.1946 832.356 45.9211C832.689 45.9213 833.004 45.9014 833.356 45.8646C836.011 45.5349 838.613 46.5332 841.028 47.4934C843.546 48.5017 845.922 49.4329 847.978 48.7879C852.049 47.4789 859.845 44.8808 862.576 43.5632C865.288 42.2736 874.795 41.3093 882.947 40.2974C891.094 39.3515 892.1 42.618 893.154 42.6185C894.173 42.619 895.534 40.9697 895.534 40.9697C895.534 40.9697 895.534 40.9697 898.581 38.7082C901.627 36.4128 901.625 39.6628 907.059 40.6595C912.491 41.6322 923.356 39.3676 923.356 39.3676C923.356 39.3676 941.721 36.7648 948.17 38.0701C948.395 38.1242 948.588 38.1243 948.791 38.1704C948.912 38.2004 948.986 38.2005 949.077 38.2005C950.891 38.4114 952.518 38.1262 953.982 37.584C954.41 37.4162 954.863 37.2504 955.26 37.0206C958.148 35.566 960.455 33.1002 962.446 31.2022C965.843 27.9369 969.913 32.8669 971.62 26.6308C973.234 20.7636 987.995 19.311 1010.14 13.0191C1011.31 12.6697 1012.52 12.3373 1013.76 11.9789C1017.74 10.7709 1020.64 9.98932 1022.73 9.47237C1030.96 7.40848 1026.42 9.73121 1025.85 10.2019C1025.75 10.2849 1025.75 10.2849 1026.01 10.212C1026.15 10.2021 1026.37 10.1212 1026.63 10.0193C1031.07 8.37854 1034.8 10.0234 1041.93 9.68598C1047.96 9.42 1045.77 10.0749 1046.76 11.0824C1046.95 11.2565 1047.22 11.4416 1047.72 11.6459C1048.25 11.8861 1048.91 12.0525 1049.68 12.1649C1053.15 12.7736 1058.53 12.4263 1062.99 12.9745C1066 13.336 1069.37 13.7077 1072.56 13.9193C1075.12 14.0396 1077.53 14.0988 1079.62 13.9598C1081.56 13.8228 1085.14 14.7756 1088.92 15.8735C1094.38 17.4822 1100.23 19.4622 1102.08 18.8531C1105.09 17.8946 1106.45 19.8523 1111.9 20.168C1116.07 20.4301 1123.07 20.6836 1130.4 20.1773C1132.61 20.0494 1134.83 19.8465 1137.03 19.5346C1140.05 19.1301 1142.74 18.3564 1145.26 17.4987C1147.44 16.7728 1149.5 15.9868 1151.66 15.2979C1154.89 14.2835 1158.22 13.5292 1162.18 13.6702C1164.68 13.7554 1167.33 14.4287 1169.99 15.3981C1172.89 16.4425 1175.8 17.867 1178.56 19.2704C1180.89 20.4615 1183.06 21.6726 1185.05 22.6976C1186.76 23.5845 1188.33 24.3123 1189.66 24.7939C1196.12 27.0862 1209.4 28.0618 1219.55 29.7269C1229.78 31.338 1229.41 31.6708 1238.57 30.6864C1247.76 29.741 1248.79 32.3445 1251.15 31.9967C1253.51 31.6839 1262.37 33.9683 1267.81 32.005C1269.54 31.3849 1271.9 31.4341 1274.44 31.7474C1279.79 32.388 1286.05 34.2182 1289.54 33.3449C1291.99 32.6991 1293.79 31.997 1295.59 31.3149C1297.51 30.5429 1299.44 29.7869 1302.1 29.1052C1302.88 28.8926 1304.52 29.0504 1306.72 29.4205C1313.56 30.6069 1326.04 34.0992 1336.88 37.0566L1336.91 37.0566C1345.32 39.3678 1352.75 41.3105 1355.75 41.552C1363.91 42.2121 1366.27 39.2513 1368.68 37.9405C1368.86 37.8386 1369.05 37.7397 1369.24 37.6458C1371.39 36.6499 1373.56 36.773 1382.59 38.2895C1389.88 39.4831 1394.21 38.5453 1396.51 37.7534C1397.33 37.4299 1397.89 37.1711 1398.24 36.9953C1399.59 36.332 1414.18 34.0433 1420.3 33.7384C1424.22 33.5203 1426.74 35.0456 1430.9 37.2247C1430.92 37.2347 1430.94 37.2597 1430.98 37.2347C1433.29 38.4439 1436.14 39.8563 1439.99 41.2442C1448.2 44.2013 1452.93 45.6967 1457.68 46.5291C1459.21 46.7998 1460.76 46.9766 1462.42 47.1344C1465.43 47.4399 1470.04 48.4193 1474.91 49.3447C1476.65 49.6506 1478.39 49.9554 1480.13 50.2233C1482.76 50.6216 1485.31 50.9019 1487.58 50.956C1489.07 51.0498 1490.46 50.9575 1491.61 50.755C1499.09 49.4488 1503.49 49.764 1506.93 49.1197C1507.11 49.0928 1507.32 49.0459 1507.56 48.982C1511.49 48.301 1521.11 47.1158 1525.59 46.2121C1529.69 45.3381 1532.54 40.8455 1534.96 38.5947C1535.34 38.2239 1535.72 37.9481 1536.11 37.7083C1537.25 37.0089 1538.37 37.6554 1539.67 38.8931C1541.46 40.507 1543.66 43.1941 1546.96 44.9128C1552.76 47.8317 1564.31 45.2344 1568.06 44.5733C1569.7 44.2771 1572.85 42.5627 1576.63 40.3416C1578.84 39.0597 1581.33 37.632 1583.82 36.1922C1586.66 34.5776 1589.53 33.0301 1592.17 31.8504C1593.44 31.305 1594.73 31.0017 1595.96 30.9023C1599.78 30.5612 1603.49 32.003 1607.02 33.4638C1609.02 34.3028 1610.97 35.1638 1612.85 35.6347C1614.02 35.9783 1615.18 36.1609 1616.28 36.1094C1619.76 35.9452 1626.27 36.8134 1632.9 37.7308C1633.82 37.8712 1634.74 37.9987 1635.66 38.1471C1641.03 38.8878 1646.19 39.5934 1649.58 39.7321C1657.74 40.0422 1660.09 39.3974 1664.17 38.7424C1665.43 38.53 1666.68 38.6437 1667.96 38.9303C1670.97 39.5288 1674.11 40.9994 1677.41 41.711C1682.2 42.6834 1686.27 40.6995 1691.69 39.4122C1692.06 39.3294 1692.42 39.2456 1692.79 39.2087C1698.51 38.6216 1708.9 42.3828 1717.51 42.3871C1723.01 42.3899 1730.68 43.6577 1736.27 44.7565C1739.09 45.3409 1741.37 45.8391 1742.53 46.1266C1742.93 46.1998 1743.19 46.283 1743.33 46.32C1744.09 46.5074 1747.53 46.7481 1751.82 46.9443C1755.25 47.047 1759.2 47.105 1762.67 46.9767C1770.51 46.6306 1777.94 45.6744 1782.37 43.7106C1786.81 41.7668 1791.89 48.9383 1794.59 49.9087C1797.32 50.9071 1799.35 50.9081 1811.92 49.6044C1824.48 48.3007 1822.12 47.3125 1825.84 46.6583C1829.58 46.0132 1834.67 49.6158 1837.72 47.3203C1840.8 45.0598 1851.66 52.2363 1861.84 49.2963C1872.05 46.3845 1887.35 41.1511 1893.77 38.5433C1897.14 37.178 1909.14 38.578 1920.04 40.1725L1920.05 17.3405C1917.66 17.0633 1915.81 16.7484 1914.85 16.4439C1909.4 14.6952 1902.16 11.2125 1895.83 12.0684C1889.51 12.9602 1883.14 9.45101 1883.14 9.45101L1878.44 10.9617L1877.7 11.2013C1877.7 11.2013 1876.16 11.5595 1874.33 11.5956C1873.37 11.5951 1872.33 11.4936 1871.37 11.1981C1868.67 10.3398 1867.76 8.58631 1865.04 11.1949C1864.85 11.3709 1864.66 11.5908 1864.54 11.7677C1864.26 12.1076 1864.03 12.4584 1863.88 12.7634C1862.83 14.6718 1862.85 16.2419 1859.27 14.5611C1858.96 14.4129 1858.6 14.2367 1858.19 14.0435C1858.06 13.9695 1857.92 13.8764 1857.79 13.8023C1854.12 11.7885 1853.16 13.275 1852.51 15.0547C1852.38 15.4066 1852.24 15.7665 1852.13 16.1265C1852.08 16.2825 1852.02 16.4124 1851.97 16.5684C1851.64 17.3052 1851.24 17.952 1850.54 18.1647C1849.11 18.604 1848.94 17.6749 1848.34 16.7416C1848.22 16.6215 1848.14 16.5115 1848.04 16.3804C1847.81 16.1243 1847.53 15.8842 1847.15 15.698C1846.49 15.4407 1845.58 15.3272 1844.19 15.5505C1838.77 16.4058 1840.58 16.4067 1835.14 16.404C1829.72 16.4013 1802.54 19.8657 1802.54 19.8657L1786.24 13.7665L1785.4 16.6101L1785.02 17.8269L1784.41 19.8566C1782.92 19.3848 1781.54 19.0972 1780.36 18.9336C1780.03 18.9124 1779.74 18.8773 1779.48 18.8581C1776.89 18.6158 1775.38 18.9951 1775.38 18.9951L1769.01 18.9919C1763.58 18.1222 1759.06 15.5079 1759.06 15.5079C1759.06 15.5079 1756.98 16.3189 1755.05 17.3519C1754.53 17.6446 1754.04 17.9604 1753.6 18.2542C1753.25 18.476 1752.95 18.7328 1752.71 18.9827C1751.21 20.439 1749.07 23.1239 1746.8 22.4028C1746.36 22.2926 1745.96 22.0614 1745.56 21.6652L1745.47 21.5891C1742.76 18.9787 1746.36 16.3606 1742.76 18.9787C1739.16 21.5499 1743.52 13.9591 1739.28 21.256L1739.11 21.5859C1738.76 22.1897 1738.44 22.7496 1738.17 23.2484C1734.61 29.4117 1734.61 29.4117 1734.61 29.4117L1731.56 28.4511L1731.46 28.4221L1730.46 28.0806L1727.49 27.1371L1727.49 27.1191L1722.89 25.6578L1721.02 25.0569L1714.66 20.7067C1714.66 20.7067 1709.23 18.961 1708.34 21.5695C1707.64 23.6562 1704.57 22.3996 1703.39 21.827C1703.08 21.6809 1702.89 21.5668 1702.89 21.5668C1702.89 21.5668 1702.19 22.6564 1701.07 23.8189C1700.64 24.2057 1700.2 24.6484 1699.69 25.0082C1698.58 25.8846 1697.27 26.53 1695.87 26.4923C1695.32 26.492 1694.74 26.3617 1694.15 26.0774C1694.07 26.0114 1693.95 25.9743 1693.85 25.9193C1689.77 23.5572 1685.67 21.9212 1683.61 24.7891C1683.36 25.113 1683.17 25.4899 1682.98 25.9138C1682.95 25.9488 1682.95 25.9888 1682.92 26.0058C1682.03 28.0354 1680.54 27.6486 1678.9 26.9268C1678.49 26.7796 1678.11 26.5574 1677.71 26.3732C1676.34 25.7625 1674.99 25.2088 1673.9 25.9093C1673.15 26.4079 1672.6 26.9606 1672.14 27.4774C1671.81 27.8202 1671.54 28.1591 1671.23 28.4559C1670.75 28.9427 1670.23 29.3424 1669.48 29.4871C1669.2 29.5419 1668.87 29.5708 1668.5 29.5136C1668.25 29.5135 1667.96 29.4863 1667.69 29.4132C1667.65 29.4132 1667.6 29.3761 1667.58 29.3761C1667.06 29.2569 1666.53 29.2096 1666.02 29.1793C1662.96 28.9488 1659.93 30.2503 1657.6 30.2491C1655.94 30.2483 1653.58 30.8901 1650.97 31.4258C1650.92 31.4258 1650.89 31.4258 1650.83 31.4347C1650.2 31.5444 1649.56 31.6741 1648.89 31.7468C1647.89 31.9123 1646.86 31.9858 1645.83 31.9852C1641.29 31.983 1630.44 30.2355 1616.85 25.8797C1603.64 21.6461 1605.83 19.0542 1599.35 22.088C1599.15 22.1969 1598.96 22.2538 1598.74 22.3627C1596.49 23.4715 1593.97 23.9663 1591.5 24.112C1585.98 24.4993 1580.67 23.2406 1578.8 23.2397C1576.09 23.2383 1572.46 23.2365 1572.46 23.2365L1567.93 24.1002C1567.93 24.1002 1558.87 24.3187 1558.21 24.5594C1557.53 24.761 1552.55 24.9705 1552.55 24.9705C1552.55 24.9705 1550.74 22.8016 1550.74 24.0916C1550.74 25.4226 1548.22 22.8004 1548.7 24.9686C1548.77 25.3277 1548.8 25.6597 1548.75 25.9746C1548.62 27.4146 1547.31 27.8209 1546.18 25.8444C1545.98 25.4763 1545.83 25.1432 1545.65 24.8571L1545.65 24.8201C1544.81 23.2977 1544.71 23.0196 1543.95 24.3112C1543.06 25.7678 1542.63 25.4386 1540.22 26.1564C1540.12 26.1833 1539.98 26.2473 1539.87 26.2662L1539.83 26.2662C1539.6 26.3401 1539.35 26.4129 1539.13 26.4508C1538.45 26.5795 1537.8 26.5962 1537.2 26.5589C1535.51 26.412 1534.2 25.8384 1534.2 25.8384L1531.49 24.082C1531.49 24.082 1529.21 22.1439 1528.11 22.5513C1526.96 22.9937 1526.75 24.3026 1524.45 23.8495C1522.2 23.4354 1519.7 21.6781 1518.8 22.1397C1517.9 22.5462 1517 19.7208 1515.4 23.208C1515.35 23.3539 1515.28 23.4689 1515.22 23.6149C1514.63 24.6306 1513.89 24.8032 1513.1 24.6468C1512.61 24.5726 1512.08 24.3413 1511.58 24.128C1511.11 23.9078 1510.65 23.6576 1510.24 23.5374C1509.91 23.3882 1509.56 23.35 1509.28 23.4279C1507.72 23.8401 1502.04 24.7333 1502.04 24.7333C1502.04 24.7333 1494.13 25.8183 1493.21 26.0398C1492.93 26.0857 1492.47 26.2605 1491.89 26.4632C1490.44 26.9795 1488.26 27.6974 1486.66 27.5506C1486.55 27.5505 1486.46 27.5135 1486.38 27.5134C1484.38 27.3664 1484.35 27.4554 1478.25 25.3874C1471.94 23.1872 1464.92 23.6267 1463.79 23.8191C1462.63 24.0475 1439.1 23.3938 1429.14 24.9088C1419.16 26.4088 1420.31 26.4094 1419.16 26.4088C1418.04 26.4082 1416.44 24.9024 1414.86 27.3016C1414.84 27.3306 1414.83 27.3836 1414.83 27.4036C1414.43 27.9484 1414.09 28.4732 1413.71 28.9801C1412.5 30.5955 1411.31 31.6459 1410.11 31.0013C1409.82 30.8141 1409.57 30.65 1409.42 30.4269C1409.06 30.0307 1408.9 29.6516 1408.59 29.4405C1408.26 29.1543 1407.77 29.0981 1406.73 29.4666C1404.22 30.3153 1398.56 25.9925 1397.2 25.7708C1395.84 25.5391 1396.31 22.7253 1389.96 24.6782C1389.43 24.8249 1388.98 24.9907 1388.5 25.1204C1384.32 26.5023 1382.24 27.4043 1380.05 27.2002C1379.5 27.1469 1378.96 27.0427 1378.4 26.8324C1375.25 25.7598 1371.6 24.881 1368.89 24.2236C1366.18 23.5763 1362.1 20.7322 1358.7 22.7055C1358.26 22.9263 1357.88 23.1291 1357.53 23.3119C1354.99 24.5677 1353.75 24.327 1350.79 25.0616C1350.51 25.1374 1350.22 25.1733 1349.95 25.2101C1347.03 25.3197 1344.66 21.9595 1337.43 21.1419C1329.49 20.2709 1318.87 21.5756 1309.79 17.455C1300.74 13.2815 1297.58 10.6669 1298.02 14.5982C1298.08 14.9582 1298.08 15.2732 1298.02 15.5292C1298.01 16.0021 1297.84 16.3621 1297.61 16.6389C1296.64 17.9205 1294.17 17.2632 1293.49 18.0929C1293.36 18.2408 1293.14 18.3527 1292.86 18.4056C1292.38 18.4773 1291.77 18.451 1291.12 18.3507C1289.3 18.1368 1287.16 17.4427 1287.16 17.4427C1287.16 17.4427 1284.43 17.4414 1283.78 15.89C1283.07 14.3767 1283.98 16.9911 1281.73 16.777C1279.46 16.5619 1277.43 12.2148 1277.43 14.1618C1277.43 16.1208 1273.35 14.5858 1274.04 14.3731C1273.75 14.41 1273.11 14.6607 1272.6 15.1494C1272.34 15.4063 1272.11 15.7292 1271.99 16.1181C1271.72 17.012 1270.37 17.3813 1269.33 17.3968C1268.87 17.3966 1268.49 17.3424 1268.29 17.2233C1268.17 17.1662 1268.12 17.0832 1268.14 16.9832C1268.22 16.7532 1268.04 16.2721 1267.79 15.754C1267.79 15.754 1267.79 15.754 1267.79 15.728C1267.29 14.7778 1266.55 13.7164 1266.55 13.7164C1266.55 13.7164 1264.74 15.4685 1264.05 16.1142C1263.4 16.7678 1260.21 12.6402 1259.31 13.0658C1258.54 13.4434 1251.45 14.2788 1249.28 14.9608C1249.25 14.9607 1249.22 14.9607 1249.22 14.9867C1248.89 15.0616 1248.72 15.1535 1248.66 15.2474C1248.46 15.5033 1247.97 15.4851 1247.34 15.2928C1246.34 15.0613 1245 14.5416 1243.67 14.145C1241.43 13.4898 1241.43 13.0568 1235.74 13.487C1230.1 13.9182 1227.84 13.245 1219.45 12.1868C1211.09 11.0766 1226.02 7.59411 1195.24 8.89271C1164.43 10.1863 1168.51 8.87933 1161.7 6.90893C1157.9 5.82702 1154.67 4.0054 1152.12 3.03713C1150.53 3.03633 1148.94 3.09854 1147.32 3.09773C1144.41 3.09627 1141.47 3.14279 1138.53 3.14132L1138.46 3.14129C1134.72 3.16541 1131.01 3.21056 1127.28 3.2087C1126.22 3.20817 1125.17 3.24363 1124.1 3.2431C1098.15 3.40611 1072.08 3.60507 1045.9 3.77697C1044.45 3.77624 1043.01 3.81251 1041.58 3.8118C1040.6 3.81131 1039.62 3.82782 1038.65 3.82733C1037.86 3.82694 1037.07 3.84654 1036.25 3.84613L1035.18 3.8456C1032.94 3.88148 1030.71 3.88036 1028.46 3.89724C995.813 4.0929 963.133 4.34354 930.49 4.5582C929.842 4.55788 929.177 4.55754 928.548 4.58623C927.964 4.75194 927.389 4.91765 926.855 5.10238C926.196 5.27505 925.546 5.47073 924.928 5.63642C910.905 9.6894 902.473 9.18518 893.698 7.89178C883.511 6.33569 875.15 11.1285 869.457 13.7377C863.803 16.3548 859.719 17.2298 859.719 17.2298C859.719 17.2298 853.622 16.3497 852.483 16.7762C851.353 17.2256 849.762 16.7748 846.828 17.0133C843.903 17.2219 837.979 17.2189 828.684 22.2162C819.427 27.2146 803.805 26.1168 803.147 26.1165C802.455 26.1161 791.105 27.8454 791.105 27.8454C791.105 27.8454 783.647 24.5837 781.825 24.3708C780.027 24.1679 779.103 25.6804 779.35 27.4336C779.564 29.1497 778.684 30.4492 777.989 30.0349C777.304 29.5925 776.65 25.6792 774.585 26.3232C772.56 26.9772 767.35 24.5755 766.201 26.319C765.098 28.0724 761.222 25.8745 760.083 25.6699C758.973 25.4474 750.58 23.6882 747.19 26.5135C743.792 29.3628 738.138 26.3049 735.417 28.0576C732.687 29.7842 731.789 12.3758 727.044 23.6774C722.291 34.99 720.683 30.4202 716.389 29.776C712.094 29.1169 707.337 29.1145 705.977 29.3438C704.633 29.5562 699.866 33.0428 696.017 33.4838C692.157 33.9149 685.601 34.1226 681.532 34.5546C677.459 34.9686 650.061 34.2978 642.131 33.4569C634.192 32.5769 629.23 31.4744 629.23 31.4744C629.23 31.4744 631.476 22.7635 628.772 24.9592C626.05 27.1168 617.421 30.8115 617.217 31.9104C617.237 31.3574 616.97 29.8253 614.496 29.511C610.881 29.0662 605.235 29.2934 599.328 29.0605C593.433 28.8365 589.6 29.7126 587.776 30.1547C585.962 30.5878 573.051 33.8553 564.22 34.0619C555.402 34.2505 524.147 31.8648 522.573 31.864C521.156 31.8633 519.964 30.7167 519.659 30.4036C519.827 30.6647 520.343 31.8629 517.566 33.1815C514.426 34.702 511.457 32.9495 511.457 32.9495C511.457 32.9495 510.552 30.76 509.208 32.5143C507.839 34.2267 502.405 32.9449 501.509 33.5805C500.573 34.223 495.614 32.2735 495.614 32.2735C495.614 32.2735 493.578 33.5765 489.958 32.7137C486.312 31.8449 489.72 29.8906 482.018 30.9567C474.337 32.0589 472.287 39.0169 462.32 39.6779C452.352 40.3179 437.425 33.7574 436.294 36.1749C435.175 38.5083 430.861 39.6061 427.742 40.0576C428.648 39.826 429.009 39.4852 420.422 39.8679C406.167 40.4978 398.691 38.104 396.226 40.0488C393.71 42.0335 390.776 44.2181 388.748 43.5541C386.713 42.906 381.947 40.4847 381.271 39.8473C380.585 39.194 377.865 39.8456 376.051 39.6337C374.229 39.3928 373.125 41.1462 371.979 40.9497C370.831 40.7021 364.501 37.4299 364.501 37.4299C364.501 37.4299 355.674 35.2585 353.425 35.2574C351.139 35.2562 340.945 37.6201 338.235 37.4168C335.525 37.2144 329.87 36.5446 328.046 36.7477C326.251 36.9968 319.449 36.1154 316.959 35.4521C314.463 34.7849 313.344 33.0773 310.851 35.2361C308.352 37.4018 306.317 36.9868 304.955 38.5081C303.593 40.0014 301.316 39.8063 299.753 39.3555C298.144 38.9117 296.365 38.7078 294.764 40.22C293.18 41.7692 290.006 43.0606 287.95 41.5266C285.925 39.9926 286.384 27.1488 283.219 32.6092C280.05 38.0437 271.915 36.0916 269.859 37.5846C267.825 39.1365 267.372 34.5763 265.325 36.5123C263.299 38.4883 255.608 36.2784 254.462 35.8548C253.322 35.4203 249.927 33.6636 246.522 32.5909C243.124 31.4842 214.393 22.1298 190.151 26.2337C165.936 30.3745 163.662 27.3184 161.856 27.3175C160.032 27.3166 151.669 26.0104 148.725 25.5669C145.772 25.1404 133.33 29.4832 129.251 27.7532C125.169 25.9971 119.969 25.5525 119.969 25.5525C119.969 25.5525 109.307 24.8912 105.697 25.7484C102.078 26.6416 89.8518 22.4915 89.8518 22.4915C89.8518 22.4915 85.7907 22.9324 83.7349 22.4884C81.7001 22.0634 76.695 18.1389 73.992 16.1715C71.2719 14.2042 67.6641 12.0424 67.4428 12.6622C67.2115 13.3341 58.598 20.0758 54.2862 21.5867C50.0005 23.1075 48.1649 28.5626 41.6122 27.9133C35.0405 27.254 35.0455 17.251 32.1111 22.0386C29.1477 26.8171 27.7975 23.0974 24.6483 25.5048C21.4461 27.9032 19.6494 29.4263 13.7748 26.5974C7.86023 23.7814 6.97396 18.298 3.34533 21.5622C1.68458 23.0613 0.843133 23.8619 0.0489322 24.2635L0.0428806 36.3545C3.93858 36.9545 8.01625 37.6115 12.0679 38.2645Z" fill="#F9F9F9"/>
<path d="M0.0979266 27.9146L0.0978335 28.1006L0.114801 28.1006C1.57886 27.9903 3.46489 28.0453 5.75279 28.2414C12.1845 28.7806 21.4397 30.3453 30.342 31.7527C32.9508 32.157 35.1145 32.5951 36.9673 32.983C43.9346 34.4715 46.0471 35.5706 49.0188 34.0311C51.3704 32.7972 56.1357 34.2926 60.1217 36.2336C63.9919 35.8386 67.3223 35.2672 68.8127 34.392C73.5631 31.5503 79.0048 32.2191 83.7621 31.5554C87.8174 31.0245 89.9055 36.6345 92.4025 38.7118C92.8293 39.063 93.2812 39.2952 93.7342 39.4054C94.959 39.6731 97.0201 39.4611 99.1974 38.8922C99.2144 38.8922 99.2144 38.8922 99.2144 38.8922C102.651 37.9709 106.399 36.1468 107.78 33.7475C110.028 29.8156 114.783 36.794 116.605 37.2379C117.161 37.3512 118.781 37.932 120.79 38.69C125.528 40.4354 132.448 43.1148 132.448 43.1148C132.448 43.1148 137.206 41.4002 139.466 41.1443C141.75 40.9425 144.463 41.8108 151.256 40.5042C158.051 39.1976 155.767 37.4815 160.986 35.0641C162.534 34.3749 163.59 34.0874 164.292 34.0588C165.349 34.0233 165.737 34.4765 165.966 34.8456C166.124 35.0667 166.227 35.2887 166.431 35.2888C166.504 35.2889 166.708 35.316 167.069 35.3731L167.097 35.3732C169.706 35.7885 178.997 37.4731 181.589 37.2704C182.43 37.2078 183.441 37.1153 184.54 37.0689C185.422 37.0153 186.374 36.9688 187.374 36.9233C189.55 36.7954 191.927 36.6136 194.279 36.4018C199.036 35.9531 205.366 37.2833 206.957 37.5081C208.531 37.7119 221.673 39.6915 223.484 39.8954C225.309 40.1363 253.591 43.8325 253.591 43.8325C253.591 43.8325 268.777 49.2931 271.246 48.8533C273.747 48.4115 289.153 53.2353 293.661 51.9275C298.189 50.6208 298.42 51.0439 302.732 49.07C307.018 47.1262 316.097 45.8297 320.154 44.9658C324.227 44.0978 331.705 41.2425 338.051 43.4417C344.401 45.6319 345.977 44.5157 353.445 42.5634C360.916 40.6102 361.167 40.6103 367.284 40.8534C371.022 40.9852 378.018 43.2587 382.847 45.0141C382.931 45.0512 383.042 45.0512 383.117 45.0873C386.032 46.1317 388.087 46.9358 388.087 46.9358C388.087 46.9358 412.535 50.88 417.091 51.5263C421.617 52.1946 426.593 53.303 427.272 52.6404C427.557 52.3805 429.03 51.9113 430.685 51.4891C432.935 50.9162 435.5 50.3745 435.879 50.2357C436.566 50.042 456.945 46.9702 466.452 46.348C475.974 45.6968 474.366 43.287 478.226 41.3149C482.095 39.3608 491.6 39.6056 495.21 37.8544C496.969 36.9853 498.551 37.1731 500.448 37.671C502.4 38.152 504.743 38.9292 508.101 39.1708C514.682 39.6171 517.162 41.1314 521.695 40.4876C526.241 39.8439 535.294 40.9364 541.189 40.7004C547.046 40.5003 552.95 42.9033 559.735 42.0197C560.069 41.9668 560.393 41.947 560.688 41.8932C566.917 41.1303 570.925 40.9093 577.395 39.6495C578.431 39.427 579.533 39.2636 580.579 39.1351C586.504 38.2151 592.593 37.8111 595.063 37.2484C598 36.6038 615.453 38.1186 617.702 37.0467C619.989 35.9608 627.004 38.7873 633.575 39.2346C640.116 39.6809 643.505 41.6556 649.196 40.9945C652.788 40.5733 655.47 41.5876 658.248 42.616C659.81 43.2528 661.43 43.8716 663.208 44.2685C668.214 45.341 673.646 47.9567 682.015 46.8899C690.39 45.8051 695.388 46.6666 701.239 44.9335C707.145 43.2005 716.646 47.3312 723.006 47.3344C729.355 47.3376 733.417 49.0856 733.417 49.0856C733.417 49.0856 733.188 48.2165 735.915 47.3409C738.621 46.4852 742.941 47.3444 756.956 42.5624C760.703 41.2913 762.565 40.6092 763.352 40.3156C762.52 40.7392 761.269 41.6415 763.768 41.9128C765.757 42.1438 767.101 42.4575 768.21 42.715C770.079 43.17 771.19 43.5125 773.504 43.2347C777.114 42.7765 785.074 42.7805 790.23 43.243C795.467 43.6717 804.296 42.1431 808.157 42.145C811.988 42.1469 822.407 45.4191 828.286 46.5301C834.179 47.623 835.078 45.6645 839.819 41.7539C843.476 38.7497 850.296 41.0951 859.294 40.9996C862.079 41.001 865.023 40.7065 868.159 40.015C881.516 36.9597 912.106 19.782 917.537 19.3328C922.98 18.9195 928.165 13.0421 928.165 13.0421C928.165 13.0421 935.2 10.4266 939.951 8.67497C944.709 6.92535 947.641 8.47582 955.334 6.72667C963.062 4.99554 976.637 10.0033 984.34 5.23619C992.034 0.414041 994.982 7.40052 1002.89 8.92847C1010.82 10.4644 1014.22 7.86415 1018.31 6.11219C1022.38 4.36123 1024.88 6.30848 1026.91 6.3095C1027.26 6.30968 1027.75 6.40292 1028.4 6.51424C1031.56 7.09582 1037.78 8.94594 1040.03 8.94706C1042.75 8.94843 1051.59 8.95285 1056.8 7.22145C1059.71 6.26391 1063.8 5.89596 1067.93 5.65803C1071.23 5.51268 1074.49 5.45831 1077.19 5.28366C1082.21 4.90818 1084.61 6.04637 1090.83 7.40549C1092.17 7.68916 1093.73 7.99693 1095.52 8.32783C1102.1 9.47713 1104.73 9.49545 1107.17 9.36767C1108.45 9.32331 1109.68 9.21192 1111.35 9.21276C1116.34 9.21525 1119.06 8.76562 1122.69 10.2894C1126.31 11.8332 1132.65 14.6584 1134.93 13.5636C1137.18 12.4847 1143.77 12.249 1143.77 12.249C1143.77 12.249 1146.11 12.8582 1148.66 13.6714C1151.31 14.5408 1154.15 15.6302 1155.05 16.6366C1156.88 18.5835 1167.73 20.556 1173.63 20.5589C1179.5 20.5619 1179.07 18.3937 1183.15 16.8637C1187.22 15.3437 1189.27 15.1248 1192.19 14.9022C1193.76 14.794 1197.89 15.4051 1203.29 16.1908C1208.2 16.8762 1214.13 17.6822 1220.05 18.1762C1232.48 19.2874 1231.82 20.5881 1240.9 21.0456C1249.95 21.4561 1255.58 23.6559 1260.6 21.4615C1265.56 19.3039 1273.24 24.5308 1279.82 23.6671C1286.41 22.7824 1287.76 24.3161 1287.76 24.3161C1287.76 24.3161 1290.5 24.7964 1292.7 25.2435C1293.84 25.4841 1294.85 25.7236 1295.23 25.8518C1296.34 26.2954 1301.36 28.8999 1305.85 29.3261C1310.39 29.7714 1309.71 29.125 1312.64 26.5075C1315.61 23.906 1322.62 28.0255 1324.64 27.6035C1326.69 27.1615 1335.3 31.0969 1346.85 30.6576C1349.41 30.5489 1352.22 30.5333 1355.15 30.5518L1355.17 30.5518C1365.49 30.586 1377.48 31.119 1386.47 31.1235C1386.84 31.1236 1387.18 31.1238 1387.49 31.142C1397.92 31.3132 1396.3 34.1724 1399.16 33.9538C1402.1 33.7423 1403.91 36.8002 1407.07 35.0648C1410.24 33.2924 1414.79 35.9176 1415.9 34.8482C1417.04 33.7488 1419.54 37.231 1422.02 37.2323C1424.5 37.2335 1428.36 36.8114 1430.16 34.4123C1431.99 32.0042 1436.95 34.8587 1438.78 34.6276C1440.61 34.4176 1441.95 36.1612 1441.95 36.1612C1441.95 36.1612 1451.47 35.087 1455.09 37.4678C1458.7 39.8526 1459.38 40.093 1461.2 42.0669C1463.01 44.0068 1473.63 47.9451 1479.73 48.5921C1485.01 49.1668 1489.45 45.201 1493.18 42.8229C1493.79 42.4632 1494.36 42.1035 1494.94 41.8268C1497.62 40.5551 1501.07 42.9198 1505.83 44.4612C1508.36 45.2665 1511.28 45.8579 1514.65 45.5656C1519.84 45.0882 1523.2 44.1569 1525.85 42.4782C1528.18 41.0664 1529.95 39.0643 1531.85 36.4182C1535.91 30.7523 1538.84 35.5627 1543.19 31.8549C1546.33 29.1335 1550.45 31.1125 1553.24 32.0909C1554.24 32.4594 1555.09 32.6819 1555.61 32.5181C1556.22 32.3314 1557.01 32.2948 1557.92 32.3883C1560.18 32.4724 1563.06 33.0088 1564.67 32.0697C1566.95 30.7678 1568.06 32.0713 1569.2 31.6559C1570.36 31.2155 1575.99 33.3743 1575.99 33.3743C1575.99 33.3743 1581.91 32.3083 1592.98 33.6238C1593.65 33.7002 1594.29 33.7905 1594.87 33.8378C1604.1 34.7814 1604.32 33.6295 1604.32 33.6295C1604.32 33.6295 1608.4 31.4435 1612.69 30.5707C1616.98 29.7228 1618.58 33.2046 1620.15 33.6374C1621.72 34.0642 1630.35 36.2545 1633.53 36.2561C1636.68 36.2577 1640.33 35.6135 1645.29 34.296C1650.26 33.0075 1657.74 33.6562 1662.48 33.6586C1667.25 33.661 1672.24 35.1965 1677.21 33.425C1681.67 31.8982 1684.15 34.5195 1686.25 32.4165C1686.49 32.1776 1686.71 31.8627 1686.95 31.4828C1689.23 27.786 1691.49 31.4851 1693.74 31.7173C1696.03 31.9304 1696.25 33.6745 1699.17 34.323C1702.14 34.9905 1704.85 33.0348 1706.42 31.4926C1707.61 30.3572 1709.26 31.385 1711.06 32.7049C1711.69 33.1762 1712.36 33.6556 1713.02 34.1089C1715.48 35.8431 1726.34 38.9226 1728.39 38.6766C1730.41 38.4736 1734.74 38.9268 1734.74 38.2738C1734.74 37.6068 1741.54 40.4532 1743.09 42.854C1744.68 45.2178 1744.45 42.6146 1763.02 41.7569C1766.69 41.6118 1768.9 41.1139 1770.09 40.4305C1774.97 37.7199 1762.95 31.8829 1763.5 31.5212C1764.16 31.0985 1773.68 34.5833 1776.39 31.5276C1779.11 28.494 1777.98 30.2094 1784.09 28.7095C1790.19 27.1895 1794.52 30.2177 1801.53 29.5742C1808.55 28.9347 1806.29 28.7206 1813.09 28.724C1819.87 28.7274 1821.23 31.9941 1823.07 30.675C1824.85 29.3829 1830.95 30.8999 1832.77 28.5208C1834.61 26.1228 1839.57 28.9512 1840.73 28.2848C1841.83 27.6394 1852.02 27.8675 1855.41 26.7792C1858.82 25.6909 1859.96 28.7474 1864.02 25.4725C1868.11 22.2085 1866.75 24.1818 1868.99 22.005C1871.29 19.8111 1871.29 22.2101 1872.85 22.6619C1874.43 23.0767 1878.3 26.5866 1879.87 25.7004C1881.48 24.8352 1888.95 22.67 1889.85 22.6704C1890.74 22.6709 1907.51 24.6252 1918.85 25.2959C1919.28 25.3141 1919.64 25.3493 1920.04 25.3885L1920.05 0.480521L0.0551316 -0.480448L0.0415279 26.6995C0.0603262 27.1026 0.0751329 27.5026 0.0979266 27.9146Z" fill="#F9F9F9"/>
</g>
<defs>
<clipPath id="clip0_47_2">
<rect width="1920" height="73.06" fill="white"/>
</clipPath>
</defs>
</svg>
